<svg width="16" height="16" viewBox="0 0 16 16" fill="none" xmlns="http://www.w3.org/2000/svg">
<path d="M7.62676 2.29542C7.71971 1.90153 8.28029 1.90153 8.37324 2.29542L9.33665 6.37818C9.37001 6.51958 9.48042 6.62998 9.62182 6.66335L13.7046 7.62676C14.0985 7.71971 14.0985 8.28029 13.7046 8.37324L9.62182 9.33665C9.48042 9.37001 9.37001 9.48042 9.33665 9.62182L8.37324 13.7046C8.28029 14.0985 7.71971 14.0985 7.62676 13.7046L6.66335 9.62182C6.62998 9.48042 6.51958 9.37001 6.37818 9.33665L2.29542 8.37324C1.90153 8.28029 1.90153 7.71971 2.29542 7.62676L6.37818 6.66335C6.51958 6.62998 6.62998 6.51958 6.66335 6.37818L7.62676 2.29542Z" fill="#171C26"/>
</svg>
