<svg width="1030" height="11" viewBox="0 0 1030 11" fill="none" xmlns="http://www.w3.org/2000/svg">
<path d="M-2.05106e-05 5.33506C-2.05106e-05 8.28153 2.38857 10.6701 5.33504 10.6701C8.28151 10.6701 10.6701 8.28153 10.6701 5.33506C10.6701 2.38859 8.28151 2.38496e-06 5.33504 2.38496e-06C2.38857 2.38496e-06 -2.05106e-05 2.38859 -2.05106e-05 5.33506ZM1019.33 5.33506C1019.33 8.28153 1021.72 10.6701 1024.66 10.6701C1027.61 10.6701 1030 8.28153 1030 5.33506C1030 2.38859 1027.61 2.38496e-06 1024.66 2.38496e-06C1021.72 2.38496e-06 1019.33 2.38859 1019.33 5.33506ZM5.33504 5.33506V6.33539H515V5.33506V4.33474H5.33504V5.33506ZM515 5.33506V6.33539H1024.66V5.33506V4.33474H515V5.33506Z" fill="black"/>
</svg>
