<svg width="38" height="64" viewBox="0 0 38 64" fill="none" xmlns="http://www.w3.org/2000/svg">
<g clip-path="url(#clip0_20_60)">
<path d="M3 64H35C36.654 64 38 62.654 38 61V3C38 1.346 36.654 0 35 0H3C1.346 0 0 1.346 0 3V61C0 62.654 1.346 64 3 64ZM2 3C2 2.73478 2.10536 2.48043 2.29289 2.29289C2.48043 2.10536 2.73478 2 3 2H35C35.2652 2 35.5196 2.10536 35.7071 2.29289C35.8946 2.48043 36 2.73478 36 3V61C36 61.2652 35.8946 61.5196 35.7071 61.7071C35.5196 61.8946 35.2652 62 35 62H3C2.73478 62 2.48043 61.8946 2.29289 61.7071C2.10536 61.5196 2 61.2652 2 61V3Z" fill="black"/>
<path d="M5 54H33C33.2652 54 33.5196 53.8946 33.7071 53.7071C33.8946 53.5196 34 53.2652 34 53V11C34 10.7348 33.8946 10.4804 33.7071 10.2929C33.5196 10.1054 33.2652 10 33 10H5C4.73478 10 4.48043 10.1054 4.29289 10.2929C4.10536 10.4804 4 10.7348 4 11V53C4 53.2652 4.10536 53.5196 4.29289 53.7071C4.48043 53.8946 4.73478 54 5 54ZM6 12H32V52H6V12Z" fill="black"/>
<path d="M20 60C21.1046 60 22 59.1046 22 58C22 56.8954 21.1046 56 20 56C18.8954 56 18 56.8954 18 58C18 59.1046 18.8954 60 20 60Z" fill="black"/>
<path d="M15 8H23C23.2652 8 23.5196 7.89464 23.7071 7.70711C23.8946 7.51957 24 7.26522 24 7C24 6.73478 23.8946 6.48043 23.7071 6.29289C23.5196 6.10536 23.2652 6 23 6H15C14.7348 6 14.4804 6.10536 14.2929 6.29289C14.1054 6.48043 14 6.73478 14 7C14 7.26522 14.1054 7.51957 14.2929 7.70711C14.4804 7.89464 14.7348 8 15 8Z" fill="black"/>
</g>
<defs>
<clipPath id="clip0_20_60">
<rect width="38" height="64" fill="white"/>
</clipPath>
</defs>
</svg>
