<svg width="61" height="61" viewBox="0 0 61 61" fill="none" xmlns="http://www.w3.org/2000/svg">
<path d="M48.2917 50.8333C49.6954 50.8333 50.8334 51.9713 50.8334 53.375C50.8334 54.7787 49.6954 55.9167 48.2917 55.9167H12.7084C11.3046 55.9167 10.1667 54.7787 10.1667 53.375C10.1667 51.9713 11.3046 50.8333 12.7084 50.8333H48.2917Z" fill="black"/>
<path d="M10.1667 53.375V20.3333C10.1667 18.9296 11.3046 17.7917 12.7084 17.7917C14.1121 17.7917 15.25 18.9296 15.25 20.3333V53.375C15.25 54.7787 14.1121 55.9167 12.7084 55.9167C11.3046 55.9167 10.1667 54.7787 10.1667 53.375ZM45.75 53.375V20.3333C45.75 18.9296 46.888 17.7917 48.2917 17.7917C49.6954 17.7917 50.8334 18.9296 50.8334 20.3333V53.375C50.8334 54.7787 49.6954 55.9167 48.2917 55.9167C46.888 55.9167 45.75 54.7787 45.75 53.375Z" fill="black"/>
<path d="M35.5833 53.375V35.5833H25.4166V53.375C25.4166 54.7787 24.2787 55.9167 22.875 55.9167C21.4713 55.9167 20.3333 54.7787 20.3333 53.375V33.0417C20.3333 31.6379 21.4713 30.5 22.875 30.5H38.125C39.5287 30.5 40.6666 31.6379 40.6666 33.0417V53.375C40.6666 54.7787 39.5287 55.9167 38.125 55.9167C36.7213 55.9167 35.5833 54.7787 35.5833 53.375Z" fill="black"/>
<path d="M29.0005 3.03126C29.9227 2.35685 31.1887 2.37919 32.0879 3.09859L57.5046 23.4319C58.6006 24.3088 58.7783 25.9085 57.9014 27.0046C57.0245 28.1006 55.4248 28.2783 54.3287 27.4014L30.5 8.33829L6.67124 27.4014C5.57514 28.2783 3.97548 28.1006 3.09857 27.0046C2.22169 25.9085 2.39934 24.3088 3.4954 23.4319L28.9121 3.09859L29.0005 3.03126Z" fill="black"/>
</svg>
