<svg width="64" height="64" viewBox="0 0 64 64" fill="none" xmlns="http://www.w3.org/2000/svg">
<path d="M41.3333 25.68C37.8784 27.5212 34.7298 29.8871 32 32.6933C29.2849 29.8704 26.1336 27.5023 22.6666 25.68C23.3066 18.2933 26.4533 11.04 32.16 5.33333C37.8133 10.9867 40.8266 18.24 41.3333 25.68ZM32 41.2C37.7333 32.4533 47.52 26.6667 58.6666 26.6667C58.6666 53.3333 33.8133 58.3467 32 58.6667C30.1866 58.3733 5.33331 53.3333 5.33331 26.6667C16.48 26.6667 26.2666 32.4533 32 41.2ZM32.1333 13.84C30.3733 16.6133 29.1466 19.68 28.48 22.88L32 25.4667L35.6 22.8533C34.9866 19.6533 33.8133 16.5867 32.1333 13.84ZM32 53.2533C32 53.2533 48 50.6667 52.64 32.6667C37.3333 37.3333 32 50.9333 32 50.9333C32 50.9333 24 34.6667 11.36 32.6933C16 50.6667 32 53.2533 32 53.2533Z" fill="black"/>
</svg>
